<svg id="Layer_1" data-name="Layer 1" xmlns="http://www.w3.org/2000/svg" viewBox="0 0 960.16 600.15"><defs><style>.cls-1{fill:#b692e5;}.cls-2{fill:#6e588a;}.cls-3{fill:#fefefe;}</style></defs><title>logo_transparent</title><path class="cls-1" d="M1383.7,1498.18c28.61,0,57.23.16,85.84-.06,4.76,0,5.68,1.48,5.67,5.88-.14,48.08-.07,96.16-.06,144.24q0,42.66,0,85.31c0,3,0,5-4.06,5-28.61-.19-57.21-.15-85.81-.19-1.5,0-3-.07-4.5-.07H789.45c-1.5,0-3,0-4.5.07-28.6,0-57.2,0-85.8.19-4,0-4.07-2-4.07-5q.07-42.65,0-85.31c0-48.08.07-96.16-.07-144.24,0-4.4.91-5.92,5.67-5.88,28.61.22,57.23.08,85.84.06,2.33,0,4.67.06,7,.06H1376.7C1379,1498.24,1381.37,1498.2,1383.7,1498.18Zm-351.1,86.71c1.27,12.78,2.45,24.09,3.49,35.41,1.11,12.16,2.37,24.31,3,36.49.56,10.54.23,10.42,10.81,10.44,3.32,0,4.1-.8,3.67-4.15-1.69-13.39-3.13-26.82-4.54-40.25-1.75-16.54-3.39-33.08-5-49.63-.28-2.88-1.28-4.29-4.54-4a49.61,49.61,0,0,1-10.48,0c-3.6-.41-4.85,1.2-5.83,4.33q-11,35.25-22.41,70.39c-.6,1.85,0,4.35-2.16,5.48-7.1-22.23-14.12-44.43-21.3-66.58-4.51-13.89-4.62-13.74-19.08-13.63-3.25,0-4.29,1.11-4.56,4.18-.66,7.5-1.66,15-2.45,22.48-2.18,20.62-4.18,41.27-6.55,61.87-1.08,9.51-1.39,9.25,7.86,9.49,3.67.09,5-1.11,5.31-4.57,1-13,2.09-26,3.19-39,1.07-12.55,2.19-25.1,3.31-37.84,1.55,1,1.63,2.31,2,3.55,7.34,22.42,14.56,44.89,22.15,67.23,3.84,11.3,1.11,9.3,13.77,9.5a4.17,4.17,0,0,1,.5,0c2.21.35,3.44-.76,4.08-2.73q6.58-20.2,13.18-40.41C1024.1,1610.65,1028.18,1598.31,1032.6,1584.89Zm176.83,29.48c4.39-1.81,7.37-3.81,9.5-6.88,9.66-13.89,4-31.23-12-37.12-14.49-5.33-29-2.56-43.6-.7-3.39.43-3.82,2.3-3.8,5.14q.2,41.58.25,83.17c0,9.24,0,9.06,9.24,9.26,3.84.08,5.18-.88,5.09-5-.28-12.33-.12-24.66-.08-37,0-1.68-.66-4.1,2.24-4.07,8.75.06,17.62-1.15,26,2.53,9.75,4.25,13.5,11.9,10.88,22.5-2.07,8.39-9.45,13.08-19.4,12.11-4.9-.48-8.7,1.34-12,4.77-2,2.07-1.92,3.27,1.1,4a57.52,57.52,0,0,0,17.66,2c13.46-.78,26.42-11.63,28.42-23.77C1231.38,1630.89,1225.24,1620.66,1209.43,1614.37Zm-111.22,9v35c0,8.83,0,8.51,9,8.94,5,.23,6-1.48,5.93-6.15-.24-25.14,0-50.28-.21-75.42,0-4.22.82-6,5.44-5.66,6.13.42,12.32-.06,18.47.17,3,.12,4.23-.57,3.65-3.71a14.23,14.23,0,0,1,0-4.27c.29-2.34-.56-3-3-3-21.3.1-42.61.14-63.92,0-4.67,0-3.42,3.08-3.39,5.44s-1.38,5.64,3.33,5.49c6.65-.21,13.33.17,20-.13,3.85-.17,4.77,1.21,4.71,4.85C1098.08,1597.74,1098.21,1610.56,1098.21,1623.38Z" transform="translate(-605.02 -1228.23)"/><path class="cls-2" d="M1383.7,1498.18c-2.33,0-4.67.06-7,.06H793.53c-2.33,0-4.67,0-7-.06a304.58,304.58,0,0,1,22.77-88.12c17.08-40.2,42.15-74.72,74.19-104.06a293.18,293.18,0,0,1,88.82-55.74,300,300,0,0,1,90.13-21.1,295,295,0,0,1,137.19,21.62,301.49,301.49,0,0,1,184.07,247.4ZM1119.06,1341c-9.31-.18-18-.56-26.69,1.23-31,6.38-53.59,38.85-41.21,73.8,11.83,33.4,52.23,48.11,82.73,28.24,17-11.08,25.87-27,26.2-47.49.05-3.15-.79-3.59-3.59-2.62a48.37,48.37,0,0,1-10.09,2.63c-12.07,1.38-22.37-2.2-29.86-12.1-6.92-9.14-8.63-19.24-4.22-30C1114.15,1350.25,1116.54,1346.05,1119.06,1341Zm-58.9-36.6c-1.85,10.15-7.68,15.73-18.57,17.22,13.28,5.8,13.28,5.8,18.92,18.87,1.52-10.92,7.18-16.77,17.36-18.55C1067.51,1320.16,1061.94,1314.6,1060.16,1304.38Zm-13.54,55.19c-10.52-1.65-15.91-7.88-17.38-18.6-2.77,5.18-2.74,10.32-6,13.34-3.09,2.86-8.17,2.7-12.74,6,11.38.61,16.35,7,18.28,17C1030.84,1367.49,1035.94,1361.15,1046.62,1359.57Z" transform="translate(-605.02 -1228.23)"/><path class="cls-2" d="M695.09,1648.24q0,42.66,0,85.31c0,3,0,5,4.07,5,28.6-.19,57.2-.16,85.8-.19,0,28.5-.05,57,.09,85.5,0,3.42-.79,4.52-4.38,4.51q-86.5-.16-173-.09c-.66,0-1.33-.08-2.49-.15,4.57-11,9.06-21.79,13.55-32.58q11.47-27.49,23-55a6.29,6.29,0,0,0-.29-5.22c-12.08-28.74-24.06-57.52-36.38-87.06Z" transform="translate(-605.02 -1228.23)"/><path class="cls-2" d="M1385.28,1738.31c28.6,0,57.2,0,85.81.19,4,0,4.06-2,4.06-5q-.08-42.65,0-85.31h90c-4.66,11.16-9.15,21.93-13.65,32.7q-11.47,27.49-23,55a6.22,6.22,0,0,0,.24,5.21q18.07,43,36,86.12c0,.13-.06.33-.18,1H1560c-56.31,0-112.62-.07-168.92.13-5,0-5.91-1.45-5.87-6.1C1385.38,1794.28,1385.27,1766.3,1385.28,1738.31Z" transform="translate(-605.02 -1228.23)"/><path class="cls-3" d="M1032.6,1584.89c-4.42,13.42-8.5,25.76-12.55,38.12q-6.62,20.19-13.18,40.41c-.64,2-1.87,3.08-4.08,2.73a4.17,4.17,0,0,0-.5,0c-12.66-.2-9.93,1.8-13.77-9.5-7.59-22.34-14.81-44.81-22.15-67.23-.4-1.24-.48-2.6-2-3.55-1.12,12.74-2.24,25.29-3.31,37.84-1.1,13-2.19,26-3.19,39-.27,3.46-1.64,4.66-5.31,4.57-9.25-.24-8.94,0-7.86-9.49,2.37-20.6,4.37-41.25,6.55-61.87.79-7.5,1.79-15,2.45-22.48.27-3.07,1.31-4.15,4.56-4.18,14.46-.11,14.57-.26,19.08,13.63,7.18,22.15,14.2,44.35,21.3,66.58,2.17-1.13,1.56-3.63,2.16-5.48q11.36-35.15,22.41-70.39c1-3.13,2.23-4.74,5.83-4.33a49.61,49.61,0,0,0,10.48,0c3.26-.34,4.26,1.07,4.54,4,1.64,16.55,3.28,33.09,5,49.63,1.41,13.43,2.85,26.86,4.54,40.25.43,3.35-.35,4.16-3.67,4.15-10.58,0-10.25.1-10.81-10.44-.66-12.18-1.92-24.33-3-36.49C1035.05,1609,1033.87,1597.67,1032.6,1584.89Z" transform="translate(-605.02 -1228.23)"/><path class="cls-3" d="M1209.43,1614.37c15.81,6.29,22,16.52,19.57,31-2,12.14-15,23-28.42,23.77a57.52,57.52,0,0,1-17.66-2c-3-.76-3.08-2-1.1-4,3.29-3.43,7.09-5.25,12-4.77,10,1,17.33-3.72,19.4-12.11,2.62-10.6-1.13-18.25-10.88-22.5-8.42-3.68-17.29-2.47-26-2.53-2.9,0-2.23,2.39-2.24,4.07,0,12.33-.2,24.66.08,37,.09,4.07-1.25,5-5.09,5-9.24-.2-9.22,0-9.24-9.26q-.09-41.6-.25-83.17c0-2.84.41-4.71,3.8-5.14,14.58-1.86,29.11-4.63,43.6.7,16,5.89,21.64,23.23,12,37.12C1216.8,1610.56,1213.82,1612.56,1209.43,1614.37Zm-35.4-19.91c0,4.16,0,8.32,0,12.49,0,1.48-.18,3.32,2,3.29,7.27-.09,14.67,1.13,21.73-1.29a16,16,0,0,0,11-15c.1-6.56-3.5-11.6-10.72-14.32-5.72-2.16-11.7-1.46-17.67-1.3-5.36.14-7.22,2.38-6.46,7.59C1174.36,1588.75,1174,1591.63,1174,1594.46Z" transform="translate(-605.02 -1228.23)"/><path class="cls-3" d="M1098.21,1623.38c0-12.82-.13-25.64.07-38.46.06-3.64-.86-5-4.71-4.85-6.64.3-13.32-.08-20,.13-4.71.15-3.3-3.17-3.33-5.49s-1.28-5.47,3.39-5.44c21.31.14,42.62.1,63.92,0,2.39,0,3.24.63,3,3a14.23,14.23,0,0,0,0,4.27c.58,3.14-.68,3.83-3.65,3.71-6.15-.23-12.34.25-18.47-.17-4.62-.32-5.47,1.44-5.44,5.66.19,25.14,0,50.28.21,75.42,0,4.67-.91,6.38-5.93,6.15-9-.43-9-.11-9-8.94Z" transform="translate(-605.02 -1228.23)"/><path class="cls-3" d="M1119.06,1341c-2.52,5.07-4.91,9.27-6.73,13.7-4.41,10.75-2.7,20.85,4.22,30,7.49,9.9,17.79,13.48,29.86,12.1a48.37,48.37,0,0,0,10.09-2.63c2.8-1,3.64-.53,3.59,2.62-.33,20.51-9.18,36.41-26.2,47.49-30.5,19.87-70.9,5.16-82.73-28.24-12.38-35,10.17-67.42,41.21-73.8C1101,1340.42,1109.75,1340.8,1119.06,1341Zm25.8,68.22c-12.54.68-23.87-2.6-32.91-11.35-11.18-10.82-16.94-23.85-12.54-39.55,1.4-5-.8-4.63-3.8-4-8.72,2-16.65,5.6-23.06,12.05-18.77,18.89-15,47.82,2.4,63.53C1098.13,1450.8,1137.13,1439.75,1144.86,1409.2Z" transform="translate(-605.02 -1228.23)"/><path class="cls-3" d="M1060.16,1304.38c1.78,10.22,7.35,15.78,17.71,17.54-10.18,1.78-15.84,7.63-17.36,18.55-5.64-13.07-5.64-13.07-18.92-18.87C1052.48,1320.11,1058.31,1314.53,1060.16,1304.38Z" transform="translate(-605.02 -1228.23)"/><path class="cls-3" d="M1046.62,1359.57c-10.68,1.58-15.78,7.92-17.84,17.82-1.93-10.07-6.9-16.42-18.28-17,4.57-3.35,9.65-3.19,12.74-6,3.26-3,3.23-8.16,6-13.34C1030.71,1351.69,1036.1,1357.92,1046.62,1359.57Z" transform="translate(-605.02 -1228.23)"/><path class="cls-1" d="M1174,1594.46c0-2.83.33-5.71-.08-8.49-.76-5.21,1.1-7.45,6.46-7.59,6-.16,11.95-.86,17.67,1.3,7.22,2.72,10.82,7.76,10.72,14.32a16,16,0,0,1-11,15c-7.06,2.42-14.46,1.2-21.73,1.29-2.19,0-2-1.81-2-3.29C1174,1602.78,1174,1598.62,1174,1594.46Z" transform="translate(-605.02 -1228.23)"/><path class="cls-2" d="M1144.86,1409.2c-7.73,30.55-46.73,41.6-69.91,20.73-17.45-15.71-21.17-44.64-2.4-63.53,6.41-6.45,14.34-10.07,23.06-12.05,3-.68,5.2-1,3.8,4-4.4,15.7,1.36,28.73,12.54,39.55C1121,1406.6,1132.32,1409.88,1144.86,1409.2Z" transform="translate(-605.02 -1228.23)"/></svg>